<?xml version="1.0" encoding="UTF-8" standalone="no"?>
<!-- The icon can be used freely in both personal and commercial projects with no attribution required, but always appreciated. 
You may NOT sub-license, resell, rent, redistribute or otherwise transfer the icon without express written permission from iconmonstr.com -->

<svg
   xmlns:dc="http://purl.org/dc/elements/1.1/"
   xmlns:cc="http://creativecommons.org/ns#"
   xmlns:rdf="http://www.w3.org/1999/02/22-rdf-syntax-ns#"
   xmlns:svg="http://www.w3.org/2000/svg"
   xmlns="http://www.w3.org/2000/svg"
   xmlns:sodipodi="http://sodipodi.sourceforge.net/DTD/sodipodi-0.dtd"
   xmlns:inkscape="http://www.inkscape.org/namespaces/inkscape"
   version="1.1"
   x="0px"
   y="0px"
   width="20.874432"
   height="21.491226"
   viewBox="0 0 20.874432 21.491226"
   enable-background="new 0 0 512 512"
   xml:space="preserve"
   id="svg2"
   inkscape:version="0.91 r13725"
   sodipodi:docname="music-disabled.svg"><metadata
     id="metadata9"><rdf:RDF><cc:Work
         rdf:about=""><dc:format>image/svg+xml</dc:format><dc:type
           rdf:resource="http://purl.org/dc/dcmitype/StillImage" /><dc:title></dc:title></cc:Work></rdf:RDF></metadata><defs
     id="defs7" /><sodipodi:namedview
     pagecolor="#ffffff"
     bordercolor="#666666"
     borderopacity="1"
     objecttolerance="10"
     gridtolerance="10"
     guidetolerance="10"
     inkscape:pageopacity="0"
     inkscape:pageshadow="2"
     inkscape:window-width="1699"
     inkscape:window-height="1177"
     id="namedview5"
     showgrid="false"
     fit-margin-top="0"
     fit-margin-left="0"
     fit-margin-right="0"
     fit-margin-bottom="0"
     inkscape:zoom="2.6074563"
     inkscape:cx="-141.78243"
     inkscape:cy="-15.212349"
     inkscape:window-x="1192"
     inkscape:window-y="468"
     inkscape:window-maximized="1"
     inkscape:current-layer="svg2" /><path
     style="fill:#4d4d4d;fill-opacity:1"
     d="M 20.875 0 L 6.6171875 2.9667969 L 10.890625 7.5 L 18.296875 5.9160156 L 18.296875 13.271484 C 17.645173 13.142854 16.992006 13.17308 16.371094 13.314453 L 20.404297 17.591797 C 20.691303 17.05503 20.87222 16.4372 20.873047 15.720703 C 20.874664 14.160397 20.875 -1.7763568e-015 20.875 0 z M 5.4492188 9.2070312 L 5.4492188 14.878906 C 2.4190058 14.280698 -0.74056313 16.972472 0.15429688 19.507812 C 1.3374629 22.860498 8.0046536 21.849997 8.0097656 17.328125 C 8.0109388 16.235525 8.0101341 14.201687 8.0097656 11.923828 L 5.4492188 9.2070312 z M 12.873047 17.082031 C 12.881026 17.353906 12.921403 17.627854 13.017578 17.900391 C 13.395494 18.971199 14.334607 19.592231 15.435547 19.800781 L 12.873047 17.082031 z "
     id="audio-7-icon" /><rect
     transform="matrix(0.80550003,-0.59259573,0.68364376,0.72981587,0,0)"
     ry="2.1553314"
     rx="1.3577728"
     y="4.2754502"
     x="-1.477484"
     height="24.195955"
     width="3.5676999"
     id="rect4137"
     style="opacity:1;fill:#4d4d4d;fill-opacity:1;fill-rule:nonzero;stroke:none;stroke-width:1.00128949;stroke-linecap:round;stroke-linejoin:miter;stroke-miterlimit:4;stroke-dasharray:none;stroke-dashoffset:0;stroke-opacity:1" /></svg>