<?xml version="1.0" encoding="UTF-8" standalone="no"?>
<svg
   xmlns:bx="https://boxy-svg.com"
   xmlns:dc="http://purl.org/dc/elements/1.1/"
   xmlns:cc="http://creativecommons.org/ns#"
   xmlns:rdf="http://www.w3.org/1999/02/22-rdf-syntax-ns#"
   xmlns:svg="http://www.w3.org/2000/svg"
   xmlns="http://www.w3.org/2000/svg"
   xmlns:sodipodi="http://sodipodi.sourceforge.net/DTD/sodipodi-0.dtd"
   xmlns:inkscape="http://www.inkscape.org/namespaces/inkscape"
   id="svg2"
   width="23.966749"
   height="27.875"
   version="1.1"
   inkscape:version="0.91 r13725"
   sodipodi:docname="narration.svg">
  <metadata
     id="metadata24">
    <rdf:RDF>
      <cc:Work
         rdf:about="">
        <dc:format>image/svg+xml</dc:format>
        <dc:type
           rdf:resource="http://purl.org/dc/dcmitype/StillImage" />
        <dc:title></dc:title>
      </cc:Work>
    </rdf:RDF>
  </metadata>
  <defs
     id="defs22" />
  <sodipodi:namedview
     pagecolor="#ffffff"
     bordercolor="#666666"
     borderopacity="1"
     objecttolerance="10"
     gridtolerance="10"
     guidetolerance="10"
     inkscape:pageopacity="0"
     inkscape:pageshadow="2"
     inkscape:window-width="1706"
     inkscape:window-height="1177"
     id="namedview20"
     showgrid="false"
     fit-margin-top="0"
     fit-margin-left="0"
     fit-margin-right="0"
     fit-margin-bottom="0"
     inkscape:zoom="10.148731"
     inkscape:cx="6.6341754"
     inkscape:cy="-18.086621"
     inkscape:window-x="1192"
     inkscape:window-y="468"
     inkscape:window-maximized="1"
     inkscape:current-layer="svg2" />
  <g
     id="layer1"
     transform="translate(-257.33179,-309.94683)">
    <g
       id="g3324"
       transform="translate(-18.991018,93.585686)">
      <path
         style="fill:#4d4d4d;fill-opacity:1"
         d="m 276.34201,231.11739 c 0.006,-4.35182 0.0127,-8.70364 0.0191,-13.05546 1.79109,-0.50407 3.692,-0.66412 5.51423,-0.21665 3.64496,0.68982 7.06272,3.38801 7.88894,7.10803 0.29759,1.21926 0.017,2.46099 -0.13793,3.67627 0.52023,1.36182 1.65854,2.47886 1.87832,3.95286 -0.26305,1.29408 -2.15819,0.11368 -2.28067,1.61099 -0.0565,1.44364 -1.42522,1.07721 -2.43587,1.19263 -1.03308,0.66197 0.956,1.28709 1.33841,1.83395 0.94573,0.48788 0.4972,1.13608 -0.24089,1.51522 -0.42761,0.17979 -0.34191,0.61964 -0.36754,1.00309 0.0384,0.77795 -0.007,1.99312 -1.1321,1.66871 -1.17439,-0.19181 -2.29513,-0.63462 -3.47024,-0.81326 -0.29213,0.62903 -0.11386,1.53799 -0.16684,2.28837 -3.1e-4,0.43026 -4.6e-4,0.86052 -9.3e-4,1.29078 -2.14173,0 -4.28346,0 -6.42519,0 0.006,-4.35185 0.0127,-8.70369 0.0191,-13.05553 z"
         id="path3309"
         inkscape:connector-curvature="0" />
    </g>
  </g>
  <path
     d="m 23.96675,1.867034 0,0 z"
     style="fill:none;stroke:#000000;stroke-width:0.07614952"
     id="path6"
     inkscape:connector-curvature="0" />
  <path
     d="m 19.117853,0.03807476 0,0 z"
     style="fill:none;stroke:#000000;stroke-width:0.07614952"
     id="path8"
     inkscape:connector-curvature="0" />
  <path
     d="m 21.840046,3.5683666 0,0 z"
     style="fill:none;stroke:#000000;stroke-width:0.07614952"
     id="path10"
     inkscape:connector-curvature="0" />
  <path
     style="color:#000000;font-style:normal;font-variant:normal;font-weight:normal;font-stretch:normal;font-size:medium;line-height:normal;font-family:sans-serif;text-indent:0;text-align:start;text-decoration:none;text-decoration-line:none;text-decoration-style:solid;text-decoration-color:#000000;letter-spacing:normal;word-spacing:normal;text-transform:none;direction:ltr;block-progression:tb;writing-mode:lr-tb;baseline-shift:baseline;text-anchor:start;white-space:normal;clip-rule:nonzero;display:inline;overflow:visible;visibility:visible;opacity:1;isolation:auto;mix-blend-mode:normal;color-interpolation:sRGB;color-interpolation-filters:linearRGB;solid-color:#000000;solid-opacity:1;fill:#4d4d4d;fill-opacity:1;fill-rule:nonzero;stroke:none;stroke-width:1.14224279;stroke-linecap:butt;stroke-linejoin:miter;stroke-miterlimit:4;stroke-dasharray:none;stroke-dashoffset:0;stroke-opacity:1;color-rendering:auto;image-rendering:auto;shape-rendering:auto;text-rendering:auto;enable-background:accumulate"
     d="m 16.480467,17.886719 -0.767578,0.845703 c 0,0 0.574446,0.534514 0.808593,1.347656 0.234148,0.813142 0.211156,1.860942 -1.285156,3.203125 l 0.761719,0.851563 c 1.737631,-1.558645 1.955497,-3.209789 1.621094,-4.371094 -0.334403,-1.161305 -1.138672,-1.876953 -1.138672,-1.876953 z"
     id="path12"
     inkscape:connector-curvature="0" />
  <path
     style="color:#000000;font-style:normal;font-variant:normal;font-weight:normal;font-stretch:normal;font-size:medium;line-height:normal;font-family:sans-serif;text-indent:0;text-align:start;text-decoration:none;text-decoration-line:none;text-decoration-style:solid;text-decoration-color:#000000;letter-spacing:normal;word-spacing:normal;text-transform:none;direction:ltr;block-progression:tb;writing-mode:lr-tb;baseline-shift:baseline;text-anchor:start;white-space:normal;clip-rule:nonzero;display:inline;overflow:visible;visibility:visible;opacity:1;isolation:auto;mix-blend-mode:normal;color-interpolation:sRGB;color-interpolation-filters:linearRGB;solid-color:#000000;solid-opacity:1;fill:#4d4d4d;fill-opacity:1;fill-rule:nonzero;stroke:none;stroke-width:1.14224279;stroke-linecap:butt;stroke-linejoin:miter;stroke-miterlimit:4;stroke-dasharray:none;stroke-dashoffset:0;stroke-opacity:1;color-rendering:auto;image-rendering:auto;shape-rendering:auto;text-rendering:auto;enable-background:accumulate"
     d="m 18.933592,16.755859 -0.767578,0.845703 c 0,0 0.911759,0.84006 1.285156,2.136719 0.373397,1.29666 0.290215,3.005984 -1.998047,5.058594 l 0.763672,0.851563 c 2.529576,-2.269074 2.805689,-4.58174 2.332031,-6.226563 -0.473658,-1.644823 -1.615234,-2.666016 -1.615234,-2.666016 z"
     id="path14"
     inkscape:connector-curvature="0" />
  <path
     d="m 20.83303,15.32722 c 0,0 6.183492,5.609477 -1.077342,12.122542"
     style="fill:none;stroke:#000000;stroke-width:1.14224279"
     bx:origin="0.517 0.5"
     id="path16"
     inkscape:connector-curvature="0" />
  <path
     style="color:#000000;font-style:normal;font-variant:normal;font-weight:normal;font-stretch:normal;font-size:medium;line-height:normal;font-family:sans-serif;text-indent:0;text-align:start;text-decoration:none;text-decoration-line:none;text-decoration-style:solid;text-decoration-color:#000000;letter-spacing:normal;word-spacing:normal;text-transform:none;direction:ltr;block-progression:tb;writing-mode:lr-tb;baseline-shift:baseline;text-anchor:start;white-space:normal;clip-rule:nonzero;display:inline;overflow:visible;visibility:visible;opacity:1;isolation:auto;mix-blend-mode:normal;color-interpolation:sRGB;color-interpolation-filters:linearRGB;solid-color:#000000;solid-opacity:1;fill:#4d4d4d;fill-opacity:1;fill-rule:nonzero;stroke:none;stroke-width:1.14224279;stroke-linecap:butt;stroke-linejoin:miter;stroke-miterlimit:4;stroke-dasharray:none;stroke-dashoffset:0;stroke-opacity:1;color-rendering:auto;image-rendering:auto;shape-rendering:auto;text-rendering:auto;enable-background:accumulate"
     d="M 21.216795,14.904297 20.449217,15.75 c 0,0 1.431392,1.311096 2.019531,3.353516 0.588139,2.042419 0.41601,4.773573 -3.09375,7.921875 L 20.136717,27.875 c 3.751074,-3.364763 4.118085,-6.697305 3.429687,-9.087891 -0.688398,-2.390585 -2.349609,-3.882812 -2.349609,-3.882812 z"
     id="path18"
     inkscape:connector-curvature="0" />
</svg>
